<svg xmlns="http://www.w3.org/2000/svg" viewBox="0 0 48 48" role="img" aria-label="????">
  <rect width="48" height="48" rx="9" fill="#E60012"/>
  <circle cx="24" cy="24" r="14" fill="none" stroke="#FFFFFF" stroke-width="1.6"/>
  <g fill="#FFFFFF" transform="translate(24 24)">
    <path d="M0-11.5 2.2-3.8 9.5-3.8 3.6 0.2 5.8 7.5 0 3.2-5.8 7.5-3.6 0.2-9.5-3.8-2.2-3.8Z"/>
    <path d="M0-11.5 2.2-3.8 9.5-3.8 3.6 0.2 5.8 7.5 0 3.2-5.8 7.5-3.6 0.2-9.5-3.8-2.2-3.8Z" transform="rotate(45)"/>
    <path d="M0-11.5 2.2-3.8 9.5-3.8 3.6 0.2 5.8 7.5 0 3.2-5.8 7.5-3.6 0.2-9.5-3.8-2.2-3.8Z" transform="rotate(90)"/>
    <path d="M0-11.5 2.2-3.8 9.5-3.8 3.6 0.2 5.8 7.5 0 3.2-5.8 7.5-3.6 0.2-9.5-3.8-2.2-3.8Z" transform="rotate(135)"/>
    <path d="M0-11.5 2.2-3.8 9.5-3.8 3.6 0.2 5.8 7.5 0 3.2-5.8 7.5-3.6 0.2-9.5-3.8-2.2-3.8Z" transform="rotate(180)"/>
    <path d="M0-11.5 2.2-3.8 9.5-3.8 3.6 0.2 5.8 7.5 0 3.2-5.8 7.5-3.6 0.2-9.5-3.8-2.2-3.8Z" transform="rotate(225)"/>
    <path d="M0-11.5 2.2-3.8 9.5-3.8 3.6 0.2 5.8 7.5 0 3.2-5.8 7.5-3.6 0.2-9.5-3.8-2.2-3.8Z" transform="rotate(270)"/>
    <path d="M0-11.5 2.2-3.8 9.5-3.8 3.6 0.2 5.8 7.5 0 3.2-5.8 7.5-3.6 0.2-9.5-3.8-2.2-3.8Z" transform="rotate(315)"/>
  </g>
  <circle cx="24" cy="24" r="4" fill="#FFFFFF"/>
</svg>
